<?xml version="1.0" encoding="iso-8859-1"?>
<!-- Generator: Adobe Illustrator 16.0.0, SVG Export Plug-In . SVG Version: 6.00 Build 0)  -->
<!DOCTYPE svg PUBLIC "-//W3C//DTD SVG 1.1//EN" "http://www.w3.org/Graphics/SVG/1.1/DTD/svg11.dtd">
<svg version="1.1" id="Capa_1" xmlns="http://www.w3.org/2000/svg" xmlns:xlink="http://www.w3.org/1999/xlink" x="0px" y="0px"
	 width="38.712px" height="38.712px" viewBox="0 0 38.712 38.712" style="enable-background:new 0 0 38.712 38.712;"
	 xml:space="preserve">
<g>
	<path d="M36.389,26.978c-0.189-0.7-0.635-1.284-1.26-1.645c-1.098-0.635-2.562-0.352-3.389,0.568l-4.624-2.67l5.968-1.595
		c0.277-0.074,0.442-0.36,0.368-0.638c-0.074-0.278-0.358-0.438-0.638-0.369l-6.971,1.867l-1.982-1.146l4.535-1.999l-4.536-1.999
		l1.985-1.146l6.967,1.868c0.044,0.013,0.09,0.019,0.135,0.019c0.232,0,0.441-0.152,0.503-0.386
		c0.075-0.278-0.091-0.563-0.368-0.637l-5.964-1.599l4.673-2.698c0.497,0.468,1.162,0.747,1.862,0.747
		c0.486,0,0.966-0.132,1.386-0.382c1.279-0.767,1.699-2.434,0.933-3.713c-0.736-1.23-2.475-1.67-3.71-0.933
		c-0.623,0.369-1.062,0.962-1.238,1.665c-0.15,0.598-0.083,1.211,0.167,1.763l-4.594,2.653l1.6-5.965
		c0.075-0.279-0.091-0.563-0.37-0.639c-0.276-0.064-0.563,0.093-0.636,0.369l-1.867,6.972l-1.984,1.145l0.534-4.926l-3.995,2.926
		v-2.293l5.1-5.1c0.201-0.204,0.201-0.535,0-0.736c-0.204-0.204-0.534-0.204-0.736,0l-4.364,4.362V5.387
		c1.342-0.139,2.414-1.261,2.435-2.637c0.022-1.494-1.176-2.727-2.705-2.75c-1.47,0-2.686,1.196-2.708,2.668
		c-0.011,0.722,0.261,1.408,0.765,1.927c0.328,0.337,0.734,0.568,1.172,0.699v5.401l-4.366-4.366c-0.203-0.204-0.534-0.204-0.737,0
		c-0.203,0.202-0.203,0.533,0,0.736l5.103,5.103v2.291l-3.998-2.926l0.536,4.925l-1.985-1.146l-1.867-6.969
		c-0.074-0.278-0.358-0.437-0.637-0.368c-0.278,0.075-0.443,0.36-0.369,0.636l1.597,5.965l-4.616-2.667
		c0.41-1.197-0.068-2.563-1.207-3.223c-1.25-0.72-2.979-0.252-3.698,0.992c-0.362,0.626-0.458,1.355-0.27,2.054
		c0.188,0.7,0.636,1.282,1.261,1.645c0.412,0.238,0.879,0.364,1.352,0.364c0.786,0,1.517-0.358,2.026-0.937l4.632,2.674
		l-5.964,1.597c-0.278,0.075-0.443,0.362-0.369,0.638c0.062,0.232,0.273,0.386,0.502,0.386c0.045,0,0.09-0.006,0.136-0.018
		l6.97-1.87l1.984,1.147l-4.537,2l4.534,1.997l-1.984,1.147l-6.971-1.869c-0.276-0.066-0.562,0.092-0.638,0.369
		c-0.074,0.281,0.091,0.563,0.369,0.638l5.966,1.599l-4.687,2.707c-0.858-0.774-2.212-0.98-3.233-0.37
		c-1.279,0.766-1.698,2.433-0.934,3.711c0.487,0.813,1.379,1.318,2.328,1.318c0.486,0,0.964-0.132,1.384-0.379
		c1.188-0.714,1.623-2.195,1.069-3.431l4.591-2.654l-1.597,5.967c-0.075,0.278,0.09,0.563,0.369,0.639
		c0.044,0.01,0.09,0.017,0.135,0.017c0.23,0,0.44-0.153,0.502-0.385l1.868-6.971l1.986-1.147l-0.536,4.928l3.998-2.929v2.286
		l-5.103,5.105c-0.203,0.201-0.203,0.534,0,0.734c0.103,0.104,0.236,0.151,0.369,0.151c0.133,0,0.267-0.051,0.369-0.151l4.366-4.367
		v5.311c-1.345,0.136-2.414,1.261-2.434,2.639c-0.012,0.722,0.259,1.405,0.764,1.925c0.503,0.519,1.179,0.812,1.902,0.821h0.042
		c1.467,0,2.68-1.194,2.706-2.665c0.011-0.722-0.26-1.409-0.765-1.93c-0.325-0.333-0.726-0.562-1.171-0.693v-5.405l4.364,4.363
		c0.203,0.203,0.532,0.203,0.736,0c0.203-0.2,0.203-0.533,0-0.736l-5.1-5.1v-2.29l3.996,2.927l-0.535-4.927l1.983,1.144l1.867,6.973
		c0.062,0.231,0.273,0.383,0.501,0.383c0.045,0,0.09-0.006,0.135-0.016c0.28-0.075,0.445-0.362,0.37-0.639l-1.599-5.966l4.62,2.667
		c-0.175,0.505-0.196,1.052-0.057,1.58c0.189,0.698,0.636,1.281,1.262,1.645c0.413,0.238,0.88,0.361,1.351,0.361
		c0.968,0,1.865-0.517,2.349-1.353C36.478,28.406,36.574,27.675,36.389,26.978z M32.031,10.408c0.108-0.433,0.379-0.797,0.762-1.024
		c0.258-0.153,0.552-0.236,0.85-0.236c0.51,0,0.981,0.246,1.296,0.638c0.045,0.06,0.1,0.108,0.135,0.173
		c0.149,0.245,0.216,0.515,0.229,0.785c0.021,0.588-0.261,1.174-0.803,1.498c-0.533,0.32-1.214,0.275-1.73-0.037
		c-0.223-0.134-0.417-0.312-0.553-0.54c-0.054-0.086-0.095-0.178-0.127-0.27C31.97,11.083,31.947,10.74,32.031,10.408z
		 M6.031,12.262c-0.522,0.445-1.314,0.562-1.929,0.205c-0.385-0.222-0.66-0.581-0.776-1.011c-0.07-0.263-0.068-0.531-0.01-0.79
		c0.037-0.164,0.09-0.326,0.177-0.474c0.086-0.151,0.198-0.277,0.323-0.389c0.304-0.279,0.7-0.445,1.123-0.445
		c0.291,0,0.577,0.076,0.829,0.223C6.405,9.95,6.7,10.678,6.56,11.362c-0.034,0.169-0.089,0.337-0.18,0.497
		C6.289,12.016,6.166,12.147,6.031,12.262z M5.916,29.322c-0.704,0.42-1.662,0.213-2.162-0.413
		c-0.043-0.053-0.086-0.104-0.122-0.161C3.485,28.5,3.417,28.229,3.405,27.96c-0.022-0.59,0.261-1.176,0.801-1.497
		c0.258-0.155,0.553-0.237,0.852-0.237c0.32,0,0.625,0.101,0.888,0.266c0.218,0.138,0.41,0.319,0.545,0.544
		c0.052,0.088,0.092,0.177,0.126,0.271C6.895,28.048,6.616,28.902,5.916,29.322z M22.581,24.941l-2.706-1.981l-0.521-0.38
		l-0.521,0.38l-2.708,1.981l0.363-3.334l0.07-0.642l-0.59-0.26l-3.068-1.354L15.968,18l0.59-0.261l-0.07-0.642l-0.363-3.333
		l2.708,1.981l0.521,0.38l0.521-0.381l2.706-1.981l-0.364,3.335l-0.068,0.641L22.735,18l3.07,1.353l-3.069,1.354l-0.59,0.26
		l0.068,0.642L22.581,24.941z M18.833,1.241c0.238-0.124,0.505-0.202,0.795-0.202c0.073,0.001,0.143,0.016,0.213,0.023
		c0.814,0.12,1.439,0.822,1.428,1.668c-0.013,0.81-0.616,1.482-1.393,1.612c-0.088,0.017-0.177,0.027-0.271,0.027v0.518
		l-0.026-0.518c-0.264-0.005-0.515-0.075-0.744-0.196c-0.154-0.081-0.3-0.18-0.424-0.309c-0.311-0.32-0.478-0.741-0.471-1.185
		C17.946,2.057,18.31,1.52,18.833,1.241z M19.875,37.467c-0.231,0.122-0.491,0.197-0.769,0.197v0.257
		c-0.004-0.004-0.008-0.006-0.014-0.01l-0.013-0.247c-0.072,0-0.142-0.014-0.213-0.022c-0.363-0.053-0.698-0.213-0.958-0.481
		c-0.309-0.319-0.476-0.739-0.468-1.187c0.011-0.804,0.606-1.473,1.393-1.609c0.097-0.018,0.195-0.03,0.297-0.03
		c0.266,0.006,0.517,0.077,0.745,0.197c0.154,0.079,0.3,0.179,0.425,0.308c0.311,0.321,0.477,0.742,0.471,1.186
		C20.762,36.652,20.395,37.191,19.875,37.467z M32.163,28.109c-0.066-0.256-0.066-0.517-0.016-0.77
		c0.037-0.17,0.092-0.339,0.183-0.494c0.091-0.156,0.211-0.289,0.343-0.405c0.301-0.269,0.688-0.429,1.104-0.429
		c0.288,0,0.577,0.076,0.83,0.224c0.386,0.222,0.66,0.582,0.776,1.012c0.068,0.262,0.066,0.53,0.01,0.789
		c-0.036,0.165-0.09,0.325-0.177,0.474c-0.085,0.148-0.198,0.271-0.324,0.383c-0.522,0.462-1.329,0.585-1.952,0.228
		C32.554,28.898,32.278,28.539,32.163,28.109z"/>
</g>
<g>
</g>
<g>
</g>
<g>
</g>
<g>
</g>
<g>
</g>
<g>
</g>
<g>
</g>
<g>
</g>
<g>
</g>
<g>
</g>
<g>
</g>
<g>
</g>
<g>
</g>
<g>
</g>
<g>
</g>
</svg>
